#!OML:ASF F:\VICON\USERDATA\INSTALL\rory3\rory3.ASF
:FULLY-SPECIFIED
:DEGREES
295
root -0.392561 16.1226 1.89232 -0.0391593 -2.35612 4.95317
lowerback 12.7594 1.64966 -7.81469
upperback -4.79266 0.812454 -0.0694545
thorax -12.6547 1.00984 4.14797
lowerneck -10.8484 -5.84276 -3.51932
upperneck 19.5843 -7.88216 2.1533
head 8.0743 -3.80484 0.483831
rclavicle -8.89561e-015 2.18663e-015
rhumerus -42.4456 -3.93469 -81.2842
rradius 21.9957
rwrist 12.2336
rhand -10.9767 22.2567
rfingers 7.12502
rthumb 15.0429 -7.17676
lclavicle -8.89561e-015 2.18663e-015
lhumerus -38.883 3.69643 85.997
lradius 18.2849
lwrist -3.62453
lhand -4.92462 19.1038
lfingers 7.12502
lthumb 20.8658 48.0017
rfemur -11.6697 -0.320682 14.3478
rtibia 69.5448
rfoot 22.2889 -9.95729
rtoes 33.2166
lfemur -21.689 -12.2661 -28.794
ltibia 32.4161
lfoot -8.46685 8.09719
ltoes 22.9934
296
root -0.378628 16.1334 2.01788 -0.0421036 -2.57706 5.10786
lowerback 12.8762 1.65462 -8.02495
upperback -4.82523 0.767492 -0.0776587
thorax -12.7648 1.01029 4.26725
lowerneck -10.8347 -5.78655 -3.49463
upperneck 19.6727 -7.79686 2.07648
head 8.0944 -3.76974 0.463077
rclavicle 5.76476e-015 5.96354e-015
rhumerus -42.6136 -3.97161 -81.3181
rradius 21.6164
rwrist 12.4758
rhand -10.7824 21.8039
rfingers 7.12502
rthumb 15.2301 -7.61549
lclavicle 5.76476e-015 5.96354e-015
lhumerus -38.7627 3.40095 86.0893
lradius 18.4408
lwrist -3.45662
lhand -5.14144 18.966
lfingers 7.12502
lthumb 20.6575 47.8867
rfemur -13.4614 -0.382597 14.2097
rtibia 71.437
rfoot 20.5794 -9.17685
rtoes 31.2404
lfemur -21.0506 -11.982 -29.1492
ltibia 32.2321
lfoot -8.83759 8.04294
ltoes 22.2213
297
root -0.365255 16.1341 2.13965 -0.083204 -2.7966 5.15674
lowerback 13.1081 1.65004 -8.09957
upperback -4.81634 0.727608 -0.0604819
thorax -12.893 1.00315 4.33689
lowerneck -11.0524 -5.75877 -3.5506
upperneck 19.8576 -7.74747 2.07688
head 8.19657 -3.74631 0.468024
rclavicle -3.37934e-015 8.94531e-015
rhumerus -42.7895 -3.84716 -81.4256
rradius 21.3981
rwrist 12.4264
rhand -10.7369 22.015
rfingers 7.12502
rthumb 15.2739 -7.40103
lclavicle -3.37934e-015 8.94531e-015
lhumerus -38.5859 3.11362 86.1904
lradius 18.7392
lwrist -3.19561
lhand -5.28893 19.238
lfingers 7.12502
lthumb 20.5158 48.174
rfemur -15.0065 -0.341878 14.1952
rtibia 73.1527
rfoot 17.5499 -9.36808
rtoes 34.1309
lfemur -20.3723 -11.6591 -29.4068
ltibia 32.0642
lfoot -9.64584 7.88671
ltoes 22.6342
298
root -0.353833 16.1398 2.26977 -0.0919004 -2.91635 5.21291
lowerback 13.1723 1.60733 -8.19592
upperback -4.80331 0.650921 -0.0242852
thorax -12.9096 0.977395 4.45048
lowerneck -11.1182 -5.68205 -3.57899
upperneck 19.9594 -7.61907 1.99386
head 8.2365 -3.6943 0.455864
rclavicle -2.75814e-015 -5.96354e-015
rhumerus -42.9171 -4.21363 -81.2034
rradius 21.0383
rwrist 13.0413
rhand -10.6529 21.9443
rfingers 7.12502
rthumb 15.3548 -7.46558
lclavicle -2.75814e-015 -5.96354e-015
lhumerus -38.3543 3.0859 86.1445
lradius 19.0035
lwrist -3.03563
lhand -5.27374 19.3424
lfingers 7.12502
lthumb 20.5304 48.2768
rfemur -16.4849 -0.406566 14.2194
rtibia 74.6635
rfoot 14.5775 -8.05229
rtoes 33.2382
lfemur -19.678 -11.449 -29.6583
ltibia 31.918
lfoot -9.65221 7.71997
ltoes 21.8361
299
root -0.344414 16.1516 2.4025 -0.117241 -3.03176 5.32228
lowerback 13.1478 1.55062 -8.43662
upperback -4.75042 0.543869 0.0498075
thorax -12.8261 0.946123 4.69639
lowerneck -11.0886 -5.54172 -3.56623
upperneck 19.8779 -7.3959 1.85955
head 8.19114 -3.60185 0.436087
rclavicle 1.47846e-014 5.56597e-015
rhumerus -42.9256 -4.44248 -80.9827
rradius 20.6594
rwrist 13.9228
rhand -10.4691 21.3727
rfingers 7.12502
rthumb 15.5318 -8.02352
lclavicle 1.47846e-014 5.56597e-015
lhumerus -38.0741 3.42949 85.9617
lradius 19.244
lwrist -3.14846
lhand -5.18074 19.25
lfingers 7.12502
lthumb 20.6197 48.1748
rfemur -17.991 -0.528142 14.2422
rtibia 75.9926
rfoot 12.1592 -5.55633
rtoes 25.9242
lfemur -18.9704 -11.2681 -29.9511
ltibia 31.7094
lfoot -9.90491 7.60296
ltoes 21.3396
300
root -0.336768 16.163 2.53074 -0.154247 -3.1577 5.32397
lowerback 13.1673 1.49527 -8.50877
upperback -4.6682 0.465241 0.110388
thorax -12.7329 0.912008 4.82476
lowerneck -11.2005 -5.35172 -3.4712
upperneck 19.8457 -7.11725 1.72776
head 8.18348 -3.47462 0.40492
rclavicle 5.71506e-016 -7.95139e-016
rhumerus -42.9392 -4.68219 -80.8248
rradius 20.4123
rwrist 14.7156
rhand -10.273 21.1086
rfingers 7.12502
rthumb 15.7207 -8.27284
lclavicle 5.71506e-016 -7.95139e-016
lhumerus -37.8216 3.50711 85.9134
lradius 19.7135
lwrist -3.15032
lhand -5.23775 19.3757
lfingers 7.12502
lthumb 20.565 48.3064
rfemur -19.4256 -0.519059 14.4224
rtibia 77.0141
rfoot 9.51736 -4.22471
rtoes 21.6364
lfemur -18.2564 -11.0969 -30.1178
ltibia 31.4347
lfoot -10.2787 7.55776
ltoes 20.5391
301
root -0.32912 16.1755 2.65829 -0.197686 -3.10928 5.32774
lowerback 13.228 1.42033 -8.53855
upperback -4.6115 0.358887 0.139024
thorax -12.6882 0.862397 4.89986
lowerneck -11.1874 -5.21549 -3.31579
upperneck 19.773 -6.92899 1.59737
head 8.14047 -3.38729 0.358737
rclavicle 4.19933e-015 7.95139e-015
rhumerus -43.01 -4.83312 -80.7507
rradius 20.1972
rwrist 15.0881
rhand -9.99244 20.9282
rfingers 7.12502
rthumb 15.9909 -8.43175
lclavicle 4.19933e-015 7.95139e-015
lhumerus -37.6162 3.39755 85.9275
lradius 20.166
lwrist -3.11165
lhand -5.41272 19.419
lfingers 7.12502
lthumb 20.3968 48.3678
rfemur -20.7689 -0.586714 14.5935
rtibia 77.7201
rfoot 7.18716 -3.73198
rtoes 22.4817
lfemur -17.4652 -11.1942 -30.3105
ltibia 31.1132
lfoot -10.6399 7.6694
ltoes 19.4043
302
root -0.318273 16.1868 2.7931 -0.252371 -3.00907 5.28395
lowerback 13.2554 1.32457 -8.49091
upperback -4.61792 0.239219 0.168413
thorax -12.6923 0.804399 4.93488
lowerneck -10.9841 -5.15704 -3.21977
upperneck 19.7657 -6.85088 1.49047
head 8.09155 -3.3561 0.322349
rclavicle 4.34841e-015 2.42517e-014
rhumerus -43.1842 -5.42707 -80.4088
rradius 19.8071
rwrist 15.7653
rhand -9.87225 20.8976
rfingers 7.12502
rthumb 16.1067 -8.45305
lclavicle 4.34841e-015 2.42517e-014
lhumerus -37.4389 3.07626 85.9963
lradius 20.3212
lwrist -2.67838
lhand -5.50279 19.4539
lfingers 7.12502
lthumb 20.3103 48.4119
rfemur -21.9264 -0.664517 14.79
rtibia 78.1089
rfoot 5.2731 -3.23135
rtoes 23.4899
lfemur -16.6281 -11.4692 -30.471
ltibia 30.7984
lfoot -11.0593 7.82698
ltoes 20.0835
303
root -0.304776 16.1902 2.92394 -0.313968 -2.90315 5.33948
lowerback 13.3459 1.25797 -8.47687
upperback -4.61189 0.141976 0.156714
thorax -12.7244 0.758224 4.93778
lowerneck -10.9212 -5.13752 -3.17037
upperneck 19.8256 -6.82508 1.43195
head 8.09547 -3.3464 0.298861
rclavicle -5.98839e-015 1.15295e-014
rhumerus -43.4212 -5.60053 -80.3332
rradius 19.5877
rwrist 15.8504
rhand -10.0963 21.3311
rfingers 7.12502
rthumb 15.8909 -8.03692
lclavicle -5.98839e-015 1.15295e-014
lhumerus -37.0738 2.86125 86.0169
lradius 20.2819
lwrist -2.38546
lhand -5.36576 19.5448
lfingers 7.12502
lthumb 20.442 48.4887
rfemur -23.1546 -0.784372 14.8866
rtibia 78.3598
rfoot 4.00966 -2.53629
rtoes 20.6163
lfemur -15.8075 -11.5047 -30.7445
ltibia 30.4587
lfoot -11.3475 7.69302
ltoes 21.4177
304
root -0.29397 16.1919 3.05062 -0.423569 -2.83089 5.44895
lowerback 13.4579 1.18547 -8.58201
upperback -4.5121 0.0201294 0.171113
thorax -12.6593 0.70432 5.04388
lowerneck -11.0556 -5.01598 -3.09072
upperneck 19.884 -6.63992 1.29489
head 8.12676 -3.26438 0.256127
rclavicle -1.56294e-014 -2.90226e-014
rhumerus -43.4646 -5.71 -80.2545
rradius 19.4291
rwrist 15.9264
rhand -10.177 21.8158
rfingers 7.12502
rthumb 15.8132 -7.55834
lclavicle -1.56294e-014 -2.90226e-014
lhumerus -36.6202 3.05004 85.9238
lradius 20.4029
lwrist -2.60632
lhand -5.29812 19.5191
lfingers 7.12502
lthumb 20.507 48.4561
rfemur -24.3003 -0.861094 14.9354
rtibia 78.3958
rfoot 2.82721 -2.08217
rtoes 16.9491
lfemur -14.9356 -11.4262 -31.0843
ltibia 30.144
lfoot -11.6601 7.60921
ltoes 20.9234
305
root -0.285473 16.1975 3.18903 -0.554585 -2.73653 5.45255
lowerback 13.4054 1.06008 -8.66308
upperback -4.40838 -0.139924 0.282027
thorax -12.483 0.630219 5.25233
lowerneck -11.0548 -4.8616 -3.12483
upperneck 19.9804 -6.39179 1.15538
head 8.14947 -3.16261 0.240945
rclavicle -1.28962e-014 -6.36111e-015
rhumerus -43.5378 -5.50761 -80.2692
rradius 19.3256
rwrist 15.6687
rhand -10.1126 21.6999
rfingers 7.12502
rthumb 15.8752 -7.66938
lclavicle -1.28962e-014 -6.36111e-015
lhumerus -36.3644 3.10722 86.0351
lradius 20.7449
lwrist -2.39699
lhand -5.37465 19.5834
lfingers 7.12502
lthumb 20.4334 48.5283
rfemur -25.1679 -0.8411 15.0874
rtibia 78.1915
rfoot 1.41009 -1.97508
rtoes 15.4453
lfemur -14.0298 -11.6328 -31.3185
ltibia 29.8852
lfoot -12.132 7.74462
ltoes 20.2011
306
root -0.27392 16.2012 3.32908 -0.597936 -2.5876 5.39898
lowerback 13.2826 0.939663 -8.57216
upperback -4.37572 -0.265423 0.329709
thorax -12.3486 0.55923 5.28256
lowerneck -10.9263 -4.87156 -3.12393
upperneck 19.9908 -6.40788 1.14135
head 8.12951 -3.17292 0.237768
rclavicle -1.30701e-014 1.19271e-015
rhumerus -43.8201 -5.5872 -80.2286
rradius 19.3976
rwrist 15.5962
rhand -9.919 21.2884
rfingers 7.12502
rthumb 16.0616 -8.06586
lclavicle -1.30701e-014 1.19271e-015
lhumerus -36.1956 2.84973 86.1531
lradius 21.0945
lwrist -1.89324
lhand -5.4245 19.6393
lfingers 7.12502
lthumb 20.3855 48.5893
rfemur -25.9984 -0.932075 15.2853
rtibia 77.7779
rfoot 0.0373099 -2.13502
rtoes 16.184
lfemur -13.2921 -11.9438 -31.4931
ltibia 29.6986
lfoot -12.5671 7.96369
ltoes 19.0766
